<?xml version="1.0" encoding="UTF-8"?>
<svg version="1.0" xmlns="http://www.w3.org/2000/svg"
 width="35" height="32" viewBox="0 0 1076 976"
 preserveAspectRatio="xMidYMid meet">
<g transform="translate(0,976) scale(0.1,-0.1)" fill="#E8ECF2" stroke="none">
<path d="M10634 9512 c-6 -4 -34 -51 -63 -106 -131 -242 -300 -466 -521 -687 -156 -156 -258 -241 -413 -345 -443 -296 -912 -471 -1632 -609 -726 -139 -885 -174 -1111 -246 -522 -166 -971 -430 -1323 -780 -307 -304 -527 -636 -718 -1084 -17 -38 -65 -152 -108 -253 -114 -268 -197 -406 -330 -549 -173 -187 -393 -301 -692 -359 -75 -15 -191 -18 -788 -24 -586 -6 -718 -10 -810 -24 -747 -117 -1366 -575 -1692 -1253 -155 -322 -233 -673 -233 -1047 0 -307 32 -529 111 -775 151 -467 440 -820 838 -1025 166 -85 259 -121 416 -161 262 -67 312 -70 1075 -70 504 0 710 3 780 13 439 60 860 240 1215 522 112 89 332 306 430 425 230 280 416 636 514 988 33 117 13 128 -76 41 -311 -302 -670 -491 -1064 -559 -47 -8 -162 -20 -255 -25 -216 -12 -1638 -13 -1767 0 -131 13 -205 33 -316 86 -132 64 -230 161 -295 294 -72 147 -90 227 -89 400 0 124 4 159 26 241 78 293 225 450 504 536 l88 27 785 6 c432 4 794 9 805 13 11 3 69 16 129 27 278 55 526 186 704 375 141 147 253 342 412 715 167 391 322 660 526 915 299 371 727 688 1181 874 273 111 543 185 973 266 446 84 682 141 911 221 639 222 1168 600 1481 1059 241 355 380 766 438 1300 17 159 25 597 11 623 -12 22 -36 28 -57 14z"/>
<path d="M10638 7638 c-9 -7 -33 -40 -54 -73 -395 -633 -1029 -1098 -1839 -1350 -198 -61 -326 -91 -745 -175 -625 -124 -866 -197 -1181 -355 -507 -254 -903 -631 -1176 -1120 -175 -314 -275 -553 -766 -1835 -58 -151 -147 -381 -198 -510 -121 -312 -127 -329 -110 -340 19 -11 94 12 221 69 341 152 600 384 812 726 30 50 97 167 148 260 222 407 299 531 424 690 99 125 301 332 426 437 183 154 453 317 685 413 214 89 394 140 765 216 563 115 782 184 1101 345 541 273 964 699 1215 1223 136 282 220 569 278 951 40 260 52 406 37 424 -16 19 -22 20 -43 4z"/>
<path d="M2035 7223 c-553 -50 -946 -206 -1254 -498 -340 -323 -525 -780 -571 -1410 -11 -149 -14 -1822 -4 -1849 15 -40 44 -15 125 107 230 343 420 538 722 740 158 106 371 213 522 263 61 20 115 40 121 45 8 7 13 100 17 297 5 305 14 375 67 515 30 81 111 197 177 256 68 61 190 124 298 153 l80 23 1156 3 1155 3 37 83 c100 221 282 503 463 720 95 112 328 349 452 458 40 35 53 53 50 70 l-3 23 -1785 1 c-982 0 -1803 -1 -1825 -3z"/>
<path d="M9824 5149 c-37 -41 -253 -198 -363 -263 -374 -222 -689 -332 -1317 -461 -446 -91 -604 -140 -879 -274 -257 -125 -427 -244 -627 -439 -358 -349 -535 -685 -673 -1282 -136 -590 -283 -961 -516 -1305 -103 -152 -189 -255 -349 -419 -166 -170 -329 -305 -527 -437 -151 -100 -185 -127 -177 -140 22 -36 413 37 669 124 587 199 1101 585 1461 1097 172 245 288 468 445 858 136 336 226 490 374 637 193 194 423 308 820 405 432 105 693 229 962 454 238 199 396 405 543 708 103 214 197 499 226 685 10 68 -31 97 -72 52z"/>
</g>
</svg>
